<?xml version="1.0" standalone="no"?>
<!DOCTYPE svg PUBLIC "-//W3C//DTD SVG 20010904//EN"
 "http://www.w3.org/TR/2001/REC-SVG-20010904/DTD/svg10.dtd">
<svg version="1.0" xmlns="http://www.w3.org/2000/svg"
 width="900.000000pt" height="980.000000pt" viewBox="0 0 900.000000 980.000000"
 preserveAspectRatio="xMidYMid meet">

<g transform="translate(0.000000,980.000000) scale(0.100000,-0.100000)"
fill="#FFFFFF" stroke="none">
<path d="M3257 9789 c-511 -49 -1033 -314 -1375 -698 -534 -601 -694 -1435
-416 -2178 181 -485 554 -908 1007 -1143 l87 -45 -2 -149 -3 -148 -190 -48
c-702 -177 -1210 -505 -1583 -1021 -331 -460 -536 -1065 -621 -1834 -38 -337
-45 -493 -46 -950 l0 -450 28 -58 c188 -381 1073 -651 2582 -786 523 -47 987
-70 1550 -76 382 -5 435 -3 405 9 -131 51 -234 130 -302 232 -93 138 -542 931
-565 996 -51 145 -37 320 35 468 48 98 157 209 264 269 l76 43 0 207 0 206
-71 40 c-88 49 -201 155 -245 228 -105 174 -118 392 -34 572 31 64 470 833
526 920 128 196 365 306 593 274 92 -13 174 -42 267 -97 l69 -40 67 44 c37 23
114 68 173 99 l106 56 3 81 3 81 -135 90 c-145 96 -415 233 -573 292 -120 44
-308 98 -442 128 l-100 22 -3 150 -2 150 77 40 c304 158 595 420 795 717 169
252 287 558 335 873 23 153 23 451 -1 605 -70 462 -274 872 -592 1195 -461
468 -1093 697 -1747 634z"/>
<path d="M6067 4853 c-4 -3 -7 -129 -7 -279 l0 -273 -57 -16 c-283 -79 -585
-251 -794 -452 l-46 -44 -224 130 c-124 71 -231 132 -239 135 -11 4 -79 -106
-249 -401 -128 -223 -234 -412 -235 -421 -1 -10 76 -60 229 -149 195 -113 230
-137 229 -156 -1 -12 -13 -78 -28 -147 -21 -97 -29 -163 -33 -295 -6 -189 3
-288 44 -458 14 -60 21 -112 17 -117 -5 -5 -110 -67 -234 -138 -123 -72 -226
-134 -227 -139 -2 -6 85 -162 193 -349 107 -186 214 -372 237 -411 23 -40 45
-73 49 -73 4 0 112 60 240 134 l233 134 65 -62 c196 -184 472 -343 734 -422
l96 -28 0 -278 0 -278 486 2 486 3 -1 265 c0 146 3 270 7 275 4 6 54 25 112
44 273 88 505 222 711 410 l75 69 230 -134 c126 -73 234 -133 239 -133 13 -1
489 828 481 837 -4 4 -109 66 -234 138 -259 149 -238 120 -204 279 58 275 57
479 -4 763 -16 72 -23 127 -18 131 5 5 106 64 224 132 118 67 221 128 228 134
13 11 -50 125 -430 778 l-39 67 -31 -16 c-17 -9 -124 -70 -236 -135 l-205
-118 -80 70 c-216 191 -413 306 -687 399 l-135 46 -3 277 -2 277 -478 0 c-263
0 -482 -3 -485 -7z m610 -1504 c494 -67 853 -528 795 -1021 -25 -208 -114
-397 -257 -544 -126 -129 -280 -218 -452 -261 -104 -26 -343 -24 -446 5 -214
59 -415 200 -537 376 -48 71 -108 203 -131 291 -31 120 -36 294 -11 415 100
484 552 806 1039 739z"/>
</g>
</svg>
