<?xml version="1.0" standalone="no"?>
<!DOCTYPE svg PUBLIC "-//W3C//DTD SVG 20010904//EN"
 "http://www.w3.org/TR/2001/REC-SVG-20010904/DTD/svg10.dtd">
<svg version="1.0" xmlns="http://www.w3.org/2000/svg"
 width="601.000000pt" height="569.000000pt" viewBox="0 0 601.000000 569.000000"
 preserveAspectRatio="xMidYMid meet">
<g transform="translate(0.000000,569.000000) scale(0.100000,-0.100000)"
fill="#FFFFFF">
<path d="M2805 5655 c-6 -5 -66 -77 -131 -160 -200 -251 -238 -295 -257 -301
-10 -3 -17 -10 -15 -15 2 -5 48 -49 103 -98 l100 -89 41 36 c37 33 42 43 48
99 l7 61 101 99 c129 126 126 123 132 123 8 0 15 -51 31 -235 8 -93 17 -184
20 -201 5 -27 -2 -38 -47 -87 -39 -41 -63 -57 -90 -62 -21 -4 -38 -10 -37 -14
0 -3 36 -37 80 -74 l80 -69 49 53 50 53 69 -65 70 -64 -5 -95 c-5 -89 -8 -97
-38 -130 -79 -88 -78 -85 -65 -116 6 -16 14 -58 18 -94 l6 -65 22 109 22 110
76 73 c42 40 83 73 91 73 9 0 45 -28 80 -62 l64 -61 0 -88 c0 -48 -7 -115 -16
-150 -12 -48 -14 -83 -8 -153 8 -100 21 -89 23 19 2 85 25 184 49 208 l21 20
5 -34 c3 -19 7 -45 9 -59 4 -30 7 -24 37 90 12 47 33 102 46 122 29 45 29 50
5 65 -28 17 -54 78 -47 107 4 15 16 26 31 30 36 9 46 0 35 -29 -8 -20 -6 -25
6 -25 8 0 13 -4 9 -9 -3 -5 -1 -12 5 -16 5 -3 10 -11 10 -16 0 -6 -4 -7 -10
-4 -6 3 -10 -4 -10 -17 0 -19 5 -16 31 22 16 25 37 59 45 75 l15 30 -25 -27
c-14 -16 -28 -28 -32 -28 -11 0 7 53 27 78 27 35 24 45 -11 39 -21 -5 -28 -3
-24 7 5 13 31 15 50 3 14 -8 42 22 87 94 20 31 46 63 60 72 13 8 43 47 66 86
23 39 45 71 49 71 4 0 16 -20 26 -43 11 -23 49 -93 84 -156 35 -63 82 -151
105 -194 23 -44 56 -108 74 -141 68 -130 33 -242 -127 -409 -55 -58 -86 -97
-76 -97 9 0 16 7 16 16 0 10 6 13 19 9 10 -3 24 1 31 10 7 8 18 15 24 15 17 0
192 145 328 272 131 123 133 124 204 83 66 -39 115 -130 129 -241 l7 -49 -44
-23 c-24 -12 -51 -22 -61 -22 -10 0 -26 -14 -35 -31 -9 -17 -33 -52 -53 -77
-56 -74 -149 -242 -149 -270 0 -3 24 29 53 71 92 133 140 183 202 206 35 13
79 21 119 21 69 0 69 0 386 -208 90 -59 130 -80 145 -76 11 4 20 7 21 8 0 0
16 28 34 61 98 180 130 246 124 257 -4 6 -3 8 4 4 11 -7 15 -1 114 179 31 55
98 177 151 270 52 94 102 185 111 203 l17 32 -681 0 c-374 0 -686 3 -693 7 -7
4 -21 6 -32 5 -15 -2 -16 -1 -7 6 11 7 6 15 -19 35 -37 29 -52 28 -26 -1 10
-10 17 -22 17 -26 0 -4 9 -21 21 -37 14 -21 29 -29 50 -29 16 0 29 -4 29 -10
0 -16 42 -12 62 7 10 9 21 13 25 9 4 -4 1 -11 -7 -16 -8 -5 -11 -12 -7 -16 4
-4 -12 -17 -35 -29 -44 -23 -78 -19 -78 8 0 16 -55 16 -72 0 -15 -16 -35 -17
-43 -2 -4 6 0 9 11 7 11 -2 18 2 16 10 -1 6 6 12 15 12 15 1 14 4 -6 21 -13
11 -30 18 -38 15 -7 -3 -13 2 -13 11 0 13 -3 14 -12 5 -13 -13 -32 -17 -24 -4
2 4 -2 16 -10 27 -14 18 -14 18 -14 -2 0 -25 -15 -39 -25 -23 -3 5 -16 10 -28
10 -19 0 -22 5 -22 43 l0 42 65 9 c46 6 69 5 84 -4 19 -12 19 -12 0 17 -63 95
-96 136 -168 203 -44 41 -74 67 -67 58 7 -9 11 -28 9 -43 l-3 -26 -33 31 c-18
16 -37 30 -42 30 -5 0 -14 9 -20 21 -9 17 -8 23 7 34 14 10 22 11 33 2 26 -19
-32 45 -95 106 -33 32 -61 54 -63 48 -2 -6 -8 -8 -14 -5 -6 4 -6 9 3 14 9 6 8
12 -6 26 -17 17 -19 16 -64 -32 -83 -89 -257 -278 -295 -321 -21 -24 -41 -43
-45 -43 -4 0 -69 95 -145 210 -76 116 -143 210 -148 210 -6 0 -71 57 -146 128
-281 264 -257 246 -325 252 -34 3 -65 1 -72 -5z m1235 -455 c0 -5 -4 -10 -10
-10 -5 0 -10 5 -10 10 0 6 5 10 10 10 6 0 10 -4 10 -10z m-30 -30 c0 -5 -5
-10 -11 -10 -5 0 -7 5 -4 10 3 6 8 10 11 10 2 0 4 -4 4 -10z m-66 -94 c-3 -9
-10 -16 -15 -16 -14 0 -11 28 4 33 16 6 19 3 11 -17z m187 -27 c-2 -8 -3 -24
-3 -36 -1 -28 -14 -30 -28 -3 -6 11 -15 18 -21 14 -5 -3 -17 0 -25 7 -14 12
-12 15 17 25 41 15 65 13 60 -7z m-231 1 c0 -5 -5 -10 -11 -10 -5 0 -7 5 -4
10 3 6 8 10 11 10 2 0 4 -4 4 -10z m125 0 c3 -5 -1 -10 -10 -10 -9 0 -13 5
-10 10 3 6 8 10 10 10 2 0 7 -4 10 -10z m-35 -10 c0 -5 -7 -10 -15 -10 -8 0
-15 5 -15 10 0 6 7 10 15 10 8 0 15 -4 15 -10z m-100 -221 c0 -5 -7 -9 -15 -9
-15 0 -20 12 -9 23 8 8 24 -1 24 -14z m441 -97 c-6 -11 -6 -33 -2 -54 7 -31 6
-37 -10 -41 -15 -4 -16 -1 -8 20 11 30 6 38 -24 38 -15 0 -22 6 -22 20 0 22
17 33 53 34 19 1 21 -2 13 -17z m519 -92 c-19 -13 -30 -13 -30 0 0 6 10 10 23
10 18 0 19 -2 7 -10z m-49 -15 c-1 -15 -24 -12 -29 3 -3 9 2 13 12 10 10 -1
17 -7 17 -13z m-181 -75 c0 -5 -7 -10 -16 -10 -8 0 -12 5 -9 10 3 6 10 10 16
10 5 0 9 -4 9 -10z m-80 -19 c0 -20 -32 -37 -49 -27 -5 3 -7 15 -4 26 7 27 53
28 53 1z m-132 -30 c27 -23 28 -31 4 -31 -19 0 -54 35 -45 44 9 9 16 7 41 -13z
m1350 11 c-13 -30 -428 -776 -436 -784 -4 -4 -65 50 -136 121 l-128 128 16 84
16 83 -34 62 c-19 34 -38 84 -42 110 -9 67 -16 77 -74 114 -28 18 -58 46 -66
61 l-15 29 452 0 c248 0 449 -3 447 -8z m-8 -282 c0 -5 -7 -10 -16 -10 -8 0
-12 5 -9 10 3 6 10 10 16 10 5 0 9 -4 9 -10z m-151 -161 c-16 -15 -29 -33 -29
-40 0 -7 -3 -10 -6 -6 -4 3 6 27 21 53 19 33 30 43 35 33 6 -8 -2 -22 -21 -40z
m41 -13 c0 -8 -4 -17 -9 -21 -12 -7 -24 12 -16 25 9 15 25 12 25 -4z m-107
-128 c-8 -15 -19 -28 -25 -28 -5 0 -8 3 -6 8 2 4 10 24 18 45 11 29 16 34 20
21 4 -10 0 -30 -7 -46z m37 7 c0 -14 -4 -25 -10 -25 -11 0 -14 33 -3 43 11 11
13 8 13 -18z"/>
<path d="M2319 5137 c-24 -19 -29 -36 -45 -140 l-17 -117 -105 -115 -105 -115
-67 0 c-49 0 -71 5 -86 18 -54 48 -220 189 -231 195 -7 5 -30 -27 -64 -88 -32
-59 -59 -95 -69 -95 -8 0 -25 -7 -37 -15 -18 -13 -122 -15 -742 -17 l-720 -3
118 -195 c64 -107 173 -287 241 -400 68 -113 147 -243 176 -290 l52 -85 69 3
c75 3 76 4 383 218 58 40 109 74 114 76 5 2 28 -46 52 -107 24 -60 43 -101 43
-90 1 28 -18 254 -24 290 -4 25 3 40 36 80 52 63 153 178 202 230 l38 40 -6
-90 c-4 -49 -10 -119 -15 -155 -5 -35 -8 -66 -6 -67 2 -2 25 56 51 129 27 73
61 165 76 203 l27 70 77 3 77 3 92 -82 c50 -46 95 -86 99 -90 5 -4 2 -35 -7
-69 -20 -76 -20 -81 -1 -74 13 5 14 2 5 -21 -19 -51 -9 -40 26 28 19 37 32 72
28 78 -3 5 -1 16 5 23 6 6 18 48 27 92 9 43 21 83 26 89 5 5 56 26 113 45 94
32 107 40 134 78 17 22 36 63 42 89 17 72 62 137 107 155 27 11 43 27 61 63
23 44 24 48 7 57 -29 16 -184 157 -190 173 -8 22 -37 18 -67 -8z m-929 -634
c-1 -5 -21 -28 -45 -53 -25 -25 -45 -48 -45 -52 0 -5 -17 -8 -38 -8 -38 0 -39
-1 -99 -102 -33 -57 -66 -113 -72 -125 -7 -13 -19 -23 -29 -23 -13 0 -22 -17
-36 -66 -14 -47 -25 -68 -40 -74 -15 -5 -28 -28 -45 -81 -20 -64 -32 -83 -89
-141 -37 -38 -73 -68 -82 -67 -12 0 -292 455 -463 751 l-27 48 555 0 c305 0
555 -3 555 -7z m-12 -105 c-6 -18 -28 -21 -28 -4 0 9 7 16 16 16 9 0 14 -5 12
-12z m-138 -197 c0 -11 -40 -22 -52 -15 -5 3 -6 10 -3 15 8 12 55 12 55 0z"/>
<path d="M2700 4793 c-35 -7 -39 -13 -56 -82 -22 -98 -46 -134 -108 -169 -48
-28 -86 -64 -86 -83 0 -3 12 -4 26 -1 36 7 51 -19 21 -35 -17 -9 -25 -9 -37 2
-13 12 -19 3 -46 -76 -17 -49 -28 -86 -24 -82 4 4 42 50 85 101 123 148 296
319 340 338 l39 16 -44 39 c-44 37 -57 41 -110 32z"/>
<path d="M2872 4647 c-16 -31 -36 -50 -67 -65 -25 -12 -45 -25 -45 -30 0 -10
18 -116 25 -150 4 -18 10 -21 29 -16 13 3 27 1 30 -5 4 -6 3 -11 -3 -11 -6 0
-7 -8 -4 -17 7 -17 5 -17 -20 0 l-28 18 2 -58 c2 -86 -20 -190 -45 -217 -11
-13 -32 -40 -46 -61 -14 -20 -32 -44 -40 -54 -8 -9 -32 -44 -52 -79 l-38 -63
40 33 c22 18 40 39 40 46 0 6 7 12 16 12 8 0 20 14 26 31 6 17 14 26 17 20 4
-6 39 22 85 68 l79 79 -7 128 c-4 89 -11 134 -21 151 -18 26 -12 45 10 36 10
-3 15 1 15 11 0 9 18 53 41 98 l41 81 -29 28 -28 29 -23 -43z m-22 -373 c0 -6
-10 -14 -22 -17 -26 -7 -30 -5 -23 14 7 18 45 20 45 3z m-106 -229 c-7 -16
-24 -21 -24 -6 0 8 7 13 27 20 1 1 0 -6 -3 -14z m-14 -25 c9 -6 10 -10 3 -10
-6 0 -19 -3 -27 -6 -12 -5 -15 -2 -10 10 7 18 13 20 34 6z"/>
<path d="M1952 4081 c-6 -25 -13 -55 -17 -66 -3 -11 4 0 16 25 35 76 38 87 24
87 -7 0 -17 -21 -23 -46z"/>
<path d="M2412 3408 c-2 -39 0 -43 21 -43 22 0 23 0 7 43 -8 23 -18 42 -21 42
-3 0 -6 -19 -7 -42z"/>
<path d="M2411 3304 c0 -11 3 -14 6 -6 3 7 2 16 -1 19 -3 4 -6 -2 -5 -13z"/>
<path d="M2440 3311 c0 -5 -6 -16 -14 -23 -11 -12 -9 -16 11 -25 21 -10 23 -9
18 7 -3 10 -1 21 5 25 15 9 12 25 -5 25 -8 0 -15 -4 -15 -9z"/>
<path d="M908 3233 c-21 -2 -38 -6 -38 -8 0 -7 254 -397 343 -528 57 -82 83
-113 90 -105 5 8 6 5 2 -9 -6 -23 8 -32 20 -13 4 6 11 8 16 5 13 -8 -1 26 -19
48 -10 11 -11 17 -4 17 7 0 12 -4 12 -10 0 -5 18 0 40 11 35 18 43 19 57 8 14
-12 13 -8 -3 19 -10 18 -27 42 -36 52 -10 11 -18 24 -18 29 0 5 -73 118 -162
250 l-161 241 -51 -2 c-28 -1 -68 -3 -88 -5z m443 -540 c13 -16 12 -17 -3 -4
-17 13 -22 21 -14 21 2 0 10 -8 17 -17z m-50 -40 c-12 -20 -14 -14 -5 12 4 9
9 14 11 11 3 -2 0 -13 -6 -23z"/>
<path d="M2433 3205 c-8 -9 -9 -16 -3 -20 14 -8 30 3 30 21 0 18 -11 17 -27
-1z"/>
<path d="M2380 3186 c0 -14 4 -27 9 -30 10 -6 23 33 15 46 -10 16 -24 7 -24
-16z"/>
<path d="M2412 3133 c-8 -14 -9 -24 -2 -28 5 -3 10 -17 10 -30 0 -27 -33 -43
-55 -25 -8 7 -15 7 -19 1 -4 -5 -3 -12 2 -15 4 -2 6 -21 4 -42 -3 -22 -7 -31
-12 -24 -6 9 -11 7 -19 -9 -7 -12 -9 -26 -6 -31 3 -6 -1 -10 -11 -10 -13 0
-14 -3 -5 -14 9 -11 8 -18 -4 -30 -21 -20 -6 -21 23 0 20 14 23 14 28 -1 4 -9
1 -28 -5 -43 -11 -25 -10 -26 4 -8 8 11 15 26 15 33 0 7 6 13 13 13 6 0 -1 12
-18 26 -22 19 -26 27 -16 33 11 7 11 10 0 14 -9 4 -8 6 5 6 10 1 25 9 32 19
10 14 15 15 26 4 11 -11 10 -16 -7 -29 -19 -15 -19 -15 7 -11 15 3 25 1 22 -3
-3 -5 -19 -9 -35 -9 -20 0 -29 -4 -26 -12 2 -8 21 -12 49 -12 40 2 45 0 41
-17 -6 -22 -14 -24 -31 -7 -10 10 -17 7 -35 -12 -16 -18 -17 -20 -3 -9 18 13
19 12 13 -3 -8 -21 1 -48 15 -48 7 0 6 5 -1 14 -9 11 -8 15 5 20 11 4 18 0 21
-14 3 -11 9 -18 13 -15 4 3 13 -2 20 -10 10 -12 9 -15 -3 -15 -11 0 -14 -5
-10 -16 8 -22 -17 -65 -36 -60 -9 3 -27 -1 -41 -10 l-25 -14 30 6 c29 5 29 5
11 -10 -17 -14 -17 -16 -4 -16 9 0 20 5 23 10 3 6 15 10 26 10 10 0 19 6 19
13 1 7 7 4 15 -7 19 -25 44 -6 37 29 -3 19 0 25 12 25 13 0 15 4 7 18 -7 13
-5 20 11 28 20 11 19 13 -23 44 -24 17 -43 36 -41 41 1 5 5 26 8 47 7 45 12
54 25 46 6 -3 6 -10 1 -17 -5 -7 -12 -27 -14 -44 -5 -36 3 -40 46 -23 37 14
33 31 -6 25 -24 -4 -29 -3 -18 5 8 5 26 10 40 11 l25 1 -25 7 c-15 5 -24 14
-24 25 1 11 -8 19 -27 23 -28 5 -57 29 -47 39 3 3 25 15 49 27 31 15 45 29 47
46 3 19 0 22 -13 17 -10 -3 -24 -1 -31 5 -8 6 -27 9 -43 6 -23 -5 -30 -2 -38
16 l-10 22 -11 -22z"/>
<path d="M3995 3131 c-3 -5 -1 -12 4 -15 5 -3 11 1 15 9 6 16 -9 21 -19 6z"/>
<path d="M3950 3110 c-9 -6 -10 -10 -3 -10 6 0 15 5 18 10 8 12 4 12 -15 0z"/>
<path d="M3903 3093 c-7 -2 -13 -11 -13 -19 0 -8 -5 -14 -11 -14 -5 0 -7 5 -3
11 4 8 -1 9 -17 4 -34 -11 -86 -45 -69 -45 12 -1 12 -3 -2 -14 -27 -20 -21
-30 7 -12 31 20 34 20 30 -1 -1 -11 -9 -17 -20 -15 -9 2 -14 -1 -11 -6 3 -5
-1 -15 -9 -22 -12 -10 -15 -9 -15 6 0 16 -2 16 -16 -4 -15 -21 -16 -21 -47 -6
l-31 17 17 -26 c9 -15 17 -30 17 -34 0 -4 -5 0 -10 9 -6 9 -24 24 -41 32 -27
14 -34 14 -58 1 l-26 -14 34 6 c25 4 32 3 27 -5 -4 -7 -14 -12 -22 -12 -8 0
-12 -4 -9 -10 3 -5 3 -10 -2 -10 -4 0 -19 -3 -33 -6 -21 -6 -23 -4 -12 7 18
19 15 31 -5 20 -10 -5 -37 -17 -60 -26 -25 -11 -40 -22 -37 -30 3 -7 1 -16 -5
-19 -6 -4 -8 -13 -5 -21 7 -17 -36 -9 -52 11 -7 8 -15 9 -25 3 -11 -7 -10 -10
9 -15 12 -4 22 -11 22 -16 0 -6 -7 -7 -16 -4 -8 3 -12 2 -9 -4 7 -11 -26 -29
-59 -32 -15 -1 -29 -10 -32 -20 -3 -10 -10 -18 -15 -18 -5 0 -8 -5 -7 -11 2
-6 -3 -14 -11 -17 -10 -3 -12 0 -8 11 5 14 3 15 -13 4 -11 -6 -19 -16 -17 -22
5 -13 57 -19 57 -6 0 9 70 34 77 27 2 -1 -6 -11 -18 -21 -17 -17 -22 -17 -29
-5 -6 8 -10 10 -10 4 0 -6 7 -17 15 -24 12 -10 15 -10 15 0 0 7 7 10 15 6 8
-3 14 0 12 6 -3 15 36 19 45 5 5 -7 6 3 3 21 -4 24 -2 32 9 32 8 0 23 2 33 5
11 3 9 1 -4 -6 -26 -14 -30 -29 -9 -29 8 0 18 -4 21 -10 3 -6 -1 -7 -9 -4 -9
3 -16 1 -16 -5 0 -6 9 -11 21 -11 18 0 20 4 15 25 -4 15 -2 25 5 25 6 0 13 -9
16 -20 7 -26 20 -26 28 0 6 20 6 20 36 0 16 -12 33 -18 39 -15 5 3 10 1 10 -4
0 -6 -7 -11 -17 -11 -9 0 -14 -2 -11 -5 3 -4 18 -3 32 1 l27 6 -24 31 c-13 18
-34 34 -45 37 -18 4 -19 7 -7 24 15 20 63 30 84 17 11 -7 10 -13 -3 -32 -10
-16 -12 -29 -6 -39 10 -17 41 -20 52 -5 5 6 8 3 8 -7 0 -9 -4 -20 -10 -23 -5
-3 -10 -1 -10 6 0 7 -11 2 -25 -11 -34 -32 -33 -60 1 -60 19 0 25 -4 20 -15
-3 -8 -1 -15 4 -15 6 0 10 3 11 8 3 33 11 57 22 64 9 6 8 8 -3 8 -8 1 -5 5 8
11 31 12 44 3 37 -24 -6 -21 -6 -22 9 -3 9 11 16 16 16 12 0 -5 7 -3 15 4 8 7
15 9 15 4 0 -5 5 -2 10 6 9 13 10 13 10 0 0 -13 1 -13 10 0 13 20 13 33 0 25
-5 -3 -7 0 -4 9 8 21 -13 54 -36 58 -18 3 -17 5 9 19 27 16 28 16 24 -2 -3
-11 -1 -19 5 -19 6 0 12 8 15 18 2 9 4 2 4 -16 0 -18 2 -35 5 -37 3 -3 19 27
36 66 21 47 27 69 18 66 -8 -3 -16 3 -19 15 -5 17 -2 19 22 16 26 -4 30 0 47
44 21 54 30 59 46 23 6 -14 15 -25 19 -25 4 0 11 -9 14 -20 11 -34 39 -42 64
-19 11 11 21 15 21 9 0 -5 5 -10 11 -10 5 0 7 5 3 12 -4 7 -3 8 4 4 9 -5 9
-13 2 -27 -8 -15 -19 -18 -45 -15 -30 4 -34 2 -26 -13 5 -9 18 -17 29 -18 24
-2 87 -59 74 -67 -5 -3 -24 8 -42 24 -38 35 -52 40 -24 8 11 -13 29 -40 40
-61 23 -47 29 -51 46 -35 7 7 30 26 51 42 23 17 36 34 33 42 -3 8 -44 72 -92
143 -58 88 -90 128 -100 124 -8 -3 -12 -9 -9 -13 6 -10 -34 -25 -42 -16 -4 3
-1 6 6 6 7 0 9 5 6 10 -3 6 -17 10 -31 10 -13 0 -24 4 -24 8 0 5 -13 8 -30 7
-16 -1 -27 2 -24 7 6 9 -4 9 -23 1z m-53 -53 c0 -5 -4 -10 -10 -10 -5 0 -10 5
-10 10 0 6 5 10 10 10 6 0 10 -4 10 -10z m-180 -134 c0 -2 -7 -7 -16 -10 -8
-3 -12 -2 -9 4 6 10 25 14 25 6z m-167 -20 c4 -10 0 -12 -15 -8 -15 4 -17 7
-6 13 17 11 15 11 21 -5z m271 -20 c-10 -8 -21 -12 -24 -10 -5 6 21 24 34 24
6 0 1 -6 -10 -14z m-329 -66 c-3 -5 -13 -10 -21 -10 -8 0 -14 5 -14 10 0 6 9
10 21 10 11 0 17 -4 14 -10z m35 -30 c0 -5 -5 -10 -11 -10 -5 0 -7 5 -4 10 3
6 8 10 11 10 2 0 4 -4 4 -10z m305 -30 c8 -26 -1 -40 -26 -40 -25 0 -35 24
-17 44 18 21 36 20 43 -4z m-80 0 c3 -5 1 -10 -4 -10 -6 0 -11 5 -11 10 0 6 2
10 4 10 3 0 8 -4 11 -10z m-42 -92 c-7 -13 -33 -9 -33 5 0 8 3 16 6 20 8 8 33
-16 27 -25z"/>
<path d="M3728 3013 c-33 -14 -51 -33 -32 -33 9 0 74 41 74 46 0 2 -1 4 -2 3
-2 -1 -20 -8 -40 -16z"/>
<path d="M2256 2951 c-3 -5 1 -12 10 -15 20 -8 29 -1 19 13 -8 13 -22 14 -29
2z"/>
<path d="M2215 2930 c-3 -6 1 -7 9 -4 18 7 21 14 7 14 -6 0 -13 -4 -16 -10z"/>
<path d="M3413 2859 c11 -7 23 -7 28 -2 5 5 -3 9 -19 11 -24 1 -25 0 -9 -9z"/>
<path d="M1831 2834 c0 -11 3 -14 6 -6 3 7 2 16 -1 19 -3 4 -6 -2 -5 -13z"/>
<path d="M1856 2825 c4 -8 8 -15 10 -15 2 0 4 7 4 15 0 8 -4 15 -10 15 -5 0
-7 -7 -4 -15z"/>
<path d="M3320 2830 c-8 -5 -10 -10 -5 -10 6 0 17 5 25 10 8 5 11 10 5 10 -5
0 -17 -5 -25 -10z"/>
<path d="M3255 2801 c-22 -11 -37 -20 -34 -20 10 -1 79 29 79 34 0 7 0 7 -45
-14z"/>
<path d="M2256 2781 c-33 -16 -69 -26 -80 -23 -21 4 -21 4 -1 -13 17 -14 18
-16 2 -11 -11 3 -16 2 -12 -4 3 -6 18 -10 32 -10 l26 0 -19 -23 c-10 -13 2 -1
28 25 37 38 53 48 68 43 11 -4 18 -10 15 -15 -6 -10 16 -27 33 -24 6 1 16 2
22 3 5 0 9 16 7 35 -1 26 -5 32 -14 24 -9 -7 -13 -7 -13 1 0 7 -9 6 -25 -5
-26 -17 -34 -7 -13 14 16 16 13 15 -56 -17z m112 -29 c2 -7 -3 -12 -12 -12 -9
0 -16 7 -16 16 0 17 22 14 28 -4z"/>
<path d="M3966 2749 c-15 -28 -26 -55 -26 -60 0 -5 -9 -18 -21 -30 -16 -16
-18 -23 -9 -34 13 -16 5 -35 -15 -35 -16 0 -58 -79 -68 -125 -7 -38 3 -58 23
-45 13 8 12 10 -2 10 -10 0 -18 5 -18 10 0 6 8 10 18 10 10 0 26 9 35 21 10
11 24 18 32 15 9 -3 12 0 9 9 -3 8 6 21 23 32 61 40 63 44 62 163 0 60 -4 110
-9 110 -5 0 -20 -23 -34 -51z m24 -53 c0 -9 -30 -14 -35 -6 -4 6 3 10 14 10
12 0 21 -2 21 -4z"/>
<path d="M2400 2772 c0 -4 9 -13 20 -20 11 -7 20 -9 20 -4 0 4 -9 13 -20 20
-11 7 -20 9 -20 4z"/>
<path d="M3178 2758 c-8 -19 -1 -28 21 -28 10 0 12 3 5 8 -6 4 -13 14 -16 21
-4 13 -5 12 -10 -1z"/>
<path d="M2276 2741 c-4 -7 -5 -15 -2 -18 9 -9 19 4 14 18 -4 11 -6 11 -12 0z"/>
<path d="M2580 2740 c-8 -5 -25 -10 -37 -10 -14 0 -23 -6 -23 -16 0 -20 36
-10 65 17 21 21 19 24 -5 9z"/>
<path d="M4062 2698 c0 -57 0 -57 24 -46 29 13 31 42 6 60 -11 7 -21 20 -24
28 -3 8 -5 -11 -6 -42z"/>
<path d="M2615 2720 c6 -18 -3 -25 -27 -21 -5 0 -8 -3 -8 -9 0 -5 6 -10 13
-10 6 -1 35 -3 63 -5 41 -4 57 -1 75 14 l24 20 -35 -8 c-46 -10 -69 9 -31 26
24 10 22 11 -27 12 -49 1 -53 -1 -47 -19z"/>
<path d="M2243 2701 c-10 -16 -8 -20 14 -30 19 -9 29 -9 37 -1 8 9 7 11 -4 10
-30 -4 -38 0 -33 20 7 25 1 26 -14 1z"/>
<path d="M3185 2690 c3 -5 11 -10 16 -10 6 0 7 5 4 10 -3 6 -11 10 -16 10 -6
0 -7 -4 -4 -10z"/>
<path d="M3050 2681 c0 -5 9 -13 21 -16 13 -5 18 -12 14 -22 -4 -13 -3 -13 8
-4 12 9 16 5 21 -19 5 -27 8 -30 26 -20 11 6 25 8 30 5 6 -3 10 4 9 17 0 13
-3 17 -6 11 -8 -20 -22 -15 -20 7 1 23 2 23 28 10 15 -8 19 -7 19 3 0 24 -77
42 -93 22 -6 -6 -10 -6 -14 3 -5 14 -43 17 -43 3z m80 -21 c0 -5 -4 -10 -10
-10 -5 0 -10 5 -10 10 0 6 5 10 10 10 6 0 10 -4 10 -10z m10 -35 c0 -8 -4 -15
-10 -15 -5 0 -10 7 -10 15 0 8 5 15 10 15 6 0 10 -7 10 -15z"/>
<path d="M3033 2655 c12 -25 27 -33 27 -14 0 10 -24 39 -33 39 -3 0 0 -11 6
-25z"/>
<path d="M2499 2662 c0 -4 -2 -17 -3 -29 -1 -12 -13 -31 -27 -42 l-24 -20 28
-26 c17 -16 28 -38 29 -58 1 -18 3 -45 4 -62 8 -96 4 -336 -7 -415 -11 -79
-16 -93 -35 -100 -31 -12 -37 -37 -14 -60 22 -22 25 -38 10 -60 -9 -13 -11
-13 -20 0 -8 13 -10 13 -10 -2 0 -9 5 -18 11 -20 6 -2 8 -14 4 -31 -5 -20 -13
-27 -30 -27 -29 0 -32 -5 -41 -60 -5 -31 -4 -41 4 -36 20 12 14 -9 -21 -76
-22 -41 -39 -63 -48 -60 -11 3 -11 2 1 -7 12 -8 12 -16 3 -43 -22 -65 -36
-144 -36 -201 0 -49 -3 -60 -19 -66 -18 -6 3 -42 182 -309 110 -166 206 -302
213 -302 19 0 31 12 60 54 21 32 28 36 33 23 9 -24 17 -21 32 13 14 31 36 43
25 14 -3 -9 0 -20 8 -24 10 -7 7 -11 -12 -20 -15 -7 -34 -29 -43 -51 -15 -33
-21 -39 -38 -33 -17 5 -20 3 -15 -10 4 -9 2 -16 -2 -16 -5 0 -12 6 -14 13 -3
7 -6 4 -6 -6 -1 -11 8 -21 19 -24 12 -3 19 -11 17 -17 -2 -6 0 -20 5 -31 19
-37 81 -125 90 -125 4 0 8 -6 8 -13 0 -7 12 -32 28 -55 22 -35 31 -42 50 -37
12 3 22 1 22 -4 0 -6 7 -7 17 -4 11 4 14 3 9 -5 -4 -7 -17 -10 -32 -6 -30 8
-31 -6 -1 -43 13 -15 32 -42 42 -60 10 -17 23 -29 29 -27 6 2 17 0 25 -5 13
-8 13 -12 1 -26 -12 -15 -11 -16 15 -9 20 5 26 4 21 -5 -5 -7 2 -11 21 -11
l29 0 -1 88 c-2 97 1 108 20 92 9 -8 11 -33 7 -97 -3 -58 -2 -84 5 -80 6 4 43
57 82 119 40 62 110 172 156 243 47 72 133 204 191 295 58 91 141 220 185 288
43 68 79 126 78 130 0 4 -27 30 -60 57 -34 28 -81 69 -106 92 -40 37 -43 44
-33 63 6 12 9 24 6 28 -3 3 -6 0 -6 -6 0 -7 -5 -12 -11 -12 -6 0 -9 7 -5 15 3
9 0 15 -8 15 -8 0 -16 -5 -18 -12 -3 -8 -11 -6 -25 7 -29 29 -45 62 -33 70 18
11 -1 26 -22 19 -17 -5 -20 -3 -15 10 4 11 0 19 -11 23 -24 10 -51 44 -52 66
0 10 -4 16 -9 12 -6 -3 -29 13 -52 35 -23 22 -48 40 -56 40 -24 0 -14 24 22
53 23 19 52 63 90 139 l56 112 -2 205 c-1 112 -4 214 -8 225 -6 20 -41 33 -41
15 0 -5 -9 -9 -20 -9 -10 0 -23 -7 -28 -17 -9 -14 -13 -13 -38 10 -16 15 -34
27 -41 27 -10 0 -13 -87 -13 -410 l0 -410 -45 0 -45 0 0 401 0 401 -22 -6
c-13 -3 -56 -13 -95 -23 l-73 -17 0 -154 0 -154 -22 6 c-13 3 -33 6 -45 6 -22
0 -23 4 -23 70 0 63 2 70 20 70 11 0 20 4 20 9 0 5 -9 13 -20 16 -22 7 -27 40
-7 48 10 4 10 6 0 6 -7 1 -13 14 -13 30 l0 28 -52 -13 c-69 -18 -96 -17 -138
6 -42 22 -61 15 215 81 121 29 222 54 225 57 3 3 0 7 -7 9 -7 2 -9 11 -6 19 3
8 0 21 -7 29 -15 18 -67 20 -72 3 -3 -7 -26 -1 -69 19 -36 17 -90 34 -121 38
l-57 7 35 51 c19 27 33 52 31 54 -2 2 -43 -15 -91 -37 -48 -22 -107 -43 -130
-46 -48 -7 -88 9 -80 30 3 7 -8 24 -23 37 -16 13 -28 28 -28 33 0 10 -35 18
-36 8z m-9 -86 c0 -3 -4 -8 -10 -11 -5 -3 -10 -1 -10 4 0 6 5 11 10 11 6 0 10
-2 10 -4z m635 -117 c11 -17 0 -20 -21 -4 -17 13 -17 14 -2 15 9 0 20 -5 23
-11z m321 -145 c18 -15 18 -15 -6 -10 -14 3 -29 6 -33 6 -5 0 -5 5 -2 10 9 14
18 13 41 -6z m-716 -209 c0 -30 -15 -33 -30 -6 -14 27 -13 31 10 31 15 0 20
-7 20 -25z m270 -190 c0 -19 -1 -35 -2 -35 -18 1 -83 31 -86 39 -4 13 32 29
66 30 19 1 22 -4 22 -34z m-530 -35 c0 -5 -4 -10 -10 -10 -5 0 -10 5 -10 10 0
6 5 10 10 10 6 0 10 -4 10 -10z m516 -70 c10 0 14 -14 14 -51 l0 -51 -31 6
c-17 3 -38 6 -45 6 -10 0 -14 14 -14 51 l0 52 31 -7 c17 -3 38 -6 45 -6z
m-571 -132 c-11 -36 -24 -44 -21 -12 4 36 4 34 17 34 6 0 8 -9 4 -22z m585
-58 c0 -47 -4 -80 -10 -80 -5 0 -10 20 -10 44 0 42 -2 45 -35 56 -44 15 -49
47 -7 53 66 10 62 14 62 -73z m-285 -240 c3 -5 -3 -10 -14 -10 -12 0 -21 5
-21 10 0 6 6 10 14 10 8 0 18 -4 21 -10z m275 -60 c0 -5 -2 -10 -4 -10 -3 0
-8 5 -11 10 -3 6 -1 10 4 10 6 0 11 -4 11 -10z m120 -10 c0 -5 -9 -10 -20 -10
-11 0 -20 5 -20 10 0 6 9 10 20 10 11 0 20 -4 20 -10z m-77 -299 c14 -17 27
-28 30 -25 10 11 24 -31 22 -68 -2 -50 -28 -85 -72 -98 -50 -15 -101 -62 -107
-97 -2 -15 -5 -30 -5 -33 -1 -2 -6 1 -12 7 -14 14 -39 6 -33 -11 2 -6 25 -13
51 -14 25 -1 57 -9 70 -17 13 -9 28 -13 33 -10 6 3 7 -1 4 -10 -4 -10 -2 -14
7 -10 13 5 44 -43 35 -53 -8 -8 -26 9 -26 24 0 11 -6 13 -20 9 -11 -4 -20 -2
-20 4 0 6 -4 11 -10 11 -21 0 -9 -20 15 -26 29 -7 32 -21 8 -40 -16 -13 -17
-14 -1 -8 22 7 135 -54 141 -77 6 -20 -11 -51 -24 -44 -5 4 -9 4 -9 2 0 -3 15
-14 33 -26 17 -11 26 -21 18 -21 -11 0 -10 -4 4 -13 15 -12 16 -15 4 -23 -8
-5 -18 -9 -24 -9 -5 0 -10 -4 -10 -10 -2 -25 -17 -55 -26 -49 -6 4 -6 11 2 20
8 10 7 17 -6 30 -9 9 -14 22 -11 29 2 7 -5 21 -16 32 -21 18 -21 18 -16 -2 4
-18 0 -21 -35 -21 -29 -1 -36 1 -24 8 24 13 21 27 -8 38 -14 5 -25 16 -25 24
0 18 28 41 38 31 4 -4 1 -10 -5 -12 -7 -3 -13 -9 -13 -14 0 -4 7 -6 15 -3 19
8 19 33 0 40 -8 3 -25 -6 -40 -22 -28 -30 -31 -40 -12 -47 6 -3 0 -6 -15 -6
-19 -1 -28 4 -28 14 0 8 7 15 15 15 11 0 14 7 9 25 -4 15 -2 25 4 25 6 0 9 12
6 26 -4 22 -2 25 16 19 25 -8 26 3 3 21 -12 8 -22 9 -29 3 -8 -7 -11 -4 -10 7
0 10 -8 20 -19 23 -11 3 -20 12 -21 19 -4 45 -6 56 -11 45 -6 -15 -49 -17 -58
-3 -5 9 15 15 37 11 4 0 3 11 -2 24 -7 20 -6 27 4 31 8 3 17 11 19 18 7 19
-31 15 -43 -4 -8 -13 -10 -13 -10 2 0 9 4 18 9 20 16 5 17 41 1 45 -13 4 -13
3 0 -6 12 -8 12 -11 -3 -17 -24 -9 -31 0 -17 25 9 17 8 21 -5 21 -8 0 -15 -6
-15 -12 0 -9 -4 -8 -10 2 -8 13 -10 12 -10 -2 0 -10 -4 -18 -10 -18 -5 0 -10
-7 -10 -15 0 -8 -4 -15 -10 -15 -5 0 -6 8 -3 18 6 15 5 16 -12 2 -17 -14 -18
-13 -12 28 3 24 7 46 10 48 2 3 17 0 33 -7 39 -15 87 -20 99 -11 6 4 17 16 25
26 14 18 13 19 -15 12 -16 -3 -25 -3 -19 1 6 4 16 17 23 28 8 13 11 14 7 3 -5
-17 13 -29 42 -27 13 0 11 3 -5 11 -34 16 -30 42 4 33 23 -5 25 -4 14 9 -17
20 0 22 29 4 16 -10 24 -10 40 0 12 7 20 8 20 2 0 -5 -4 -10 -8 -10 -5 0 -9
-6 -9 -14 0 -12 4 -12 21 2 l22 15 -23 46 c-13 25 -31 52 -40 59 -15 11 -15
12 4 12 12 0 32 -13 46 -29z m-423 -61 c0 -9 -31 -30 -44 -30 -3 0 2 9 11 20
19 21 33 26 33 10z m100 0 c0 -5 -7 -10 -15 -10 -8 0 -15 5 -15 10 0 6 7 10
15 10 8 0 15 -4 15 -10z m-155 -80 c3 -5 1 -10 -4 -10 -6 0 -11 5 -11 10 0 6
2 10 4 10 3 0 8 -4 11 -10z m245 -140 c0 -5 -7 -10 -15 -10 -8 0 -15 5 -15 10
0 6 7 10 15 10 8 0 15 -4 15 -10z m-29 -33 c-1 -12 -15 -9 -19 4 -3 6 1 10 8
8 6 -3 11 -8 11 -12z m52 -96 c-13 -11 -23 -21 -23 -24 0 -3 10 -8 23 -12 l22
-8 -25 -4 c-13 -3 -26 0 -28 6 -2 6 -8 9 -13 5 -18 -11 -8 6 18 31 15 14 32
25 38 25 5 -1 0 -9 -12 -19z m77 -90 c0 -6 -4 -13 -10 -16 -5 -3 -10 1 -10 9
0 9 5 16 10 16 6 0 10 -4 10 -9z m-95 -11 c-3 -5 -14 -10 -23 -10 -15 0 -15 2
-2 10 20 13 33 13 25 0z m22 -36 c-3 -3 -12 -4 -19 -1 -8 3 -5 6 6 6 11 1 17
-2 13 -5z m33 -22 c0 -13 -12 -22 -22 -16 -10 6 -1 24 13 24 5 0 9 -4 9 -8z
m38 -30 c2 -7 -2 -10 -12 -6 -9 3 -16 11 -16 16 0 13 23 5 28 -10z m42 -32 c0
-5 -5 -10 -11 -10 -5 0 -7 5 -4 10 3 6 8 10 11 10 2 0 4 -4 4 -10z m-5 -30 c3
-6 -1 -7 -9 -4 -18 7 -21 14 -7 14 6 0 13 -4 16 -10z m106 -33 c-18 -18 -37 7
-20 26 12 13 15 13 23 0 5 -9 4 -19 -3 -26z m-51 -2 c-7 -9 -15 -13 -17 -11
-6 6 20 36 26 30 2 -2 -2 -10 -9 -19z m-35 -5 c3 -5 1 -10 -4 -10 -6 0 -11 5
-11 10 0 6 2 10 4 10 3 0 8 -4 11 -10z m-17 -26 c41 -3 46 -6 22 -13 -27 -7
-39 -37 -18 -44 7 -2 2 -2 -11 0 -13 2 -27 0 -30 -6 -4 -6 -12 -6 -20 -2 -19
12 -3 33 20 26 17 -6 18 -4 9 20 -14 36 -12 54 3 35 7 -8 18 -15 25 -16z m138
-20 c27 10 36 -5 15 -24 -20 -16 -24 -16 -68 -1 -43 14 -45 16 -20 19 15 2 27
8 27 14 0 7 6 6 15 -2 8 -7 22 -9 31 -6z m-42 -40 c9 -3 16 -10 16 -15 0 -14
-26 -10 -40 6 -13 16 -3 20 24 9z m-23 -34 c5 0 9 -4 9 -9 0 -12 -38 -2 -47
12 -4 7 0 8 11 4 10 -4 22 -7 27 -7z m-51 -44 c0 -3 -4 -8 -10 -11 -5 -3 -10
-1 -10 4 0 6 5 11 10 11 6 0 10 -2 10 -4z m20 -16 c0 -5 -5 -10 -11 -10 -5 0
-7 5 -4 10 3 6 8 10 11 10 2 0 4 -4 4 -10z m50 -15 c-7 -8 -18 -15 -24 -15 -6
0 -5 4 3 9 11 7 10 10 -5 14 -13 3 -10 5 10 6 24 1 27 -1 16 -14z m37 -11 c-3
-3 -12 -4 -19 -1 -8 3 -5 6 6 6 11 1 17 -2 13 -5z m3 -44 c0 -5 -4 -10 -10
-10 -5 0 -10 5 -10 10 0 6 5 10 10 10 6 0 10 -4 10 -10z"/>
<path d="M2950 869 c0 -5 5 -7 10 -4 6 3 10 8 10 11 0 2 -4 4 -10 4 -5 0 -10
-5 -10 -11z"/>
<path d="M2930 828 c0 -10 -5 -18 -12 -18 -6 0 -9 -3 -5 -6 3 -3 12 -2 21 3
10 6 12 13 6 23 -8 13 -10 12 -10 -2z"/>
<path d="M2952 579 c2 -7 10 -15 17 -17 8 -3 12 1 9 9 -2 7 -10 15 -17 17 -8
3 -12 -1 -9 -9z"/>
<path d="M3078 470 c19 -21 14 -32 -10 -24 -21 6 -21 6 -4 -11 15 -15 19 -16
27 -4 12 20 11 25 -8 40 -15 11 -16 11 -5 -1z"/>
<path d="M3121 464 c0 -11 3 -14 6 -6 3 7 2 16 -1 19 -3 4 -6 -2 -5 -13z"/>
<path d="M2977 2651 c26 -25 33 -26 33 -6 0 8 -4 15 -9 15 -5 0 -18 3 -28 6
-15 6 -14 3 4 -15z"/>
<path d="M2930 2650 c0 -5 5 -10 10 -10 6 0 10 5 10 10 0 6 -4 10 -10 10 -5 0
-10 -4 -10 -10z"/>
<path d="M3744 2647 c-6 -7 -9 -17 -7 -23 2 -7 -7 -10 -22 -9 -14 2 -23 0 -20
-5 2 -4 18 -6 35 -4 21 3 30 -1 30 -11 0 -9 -6 -12 -15 -9 -8 4 -15 1 -15 -5
0 -7 -10 -9 -25 -7 -14 3 -25 1 -25 -4 0 -5 8 -8 18 -8 9 0 26 -3 36 -7 14 -6
17 -5 12 3 -4 7 -1 12 7 12 7 0 21 16 31 37 14 29 15 38 4 44 -18 12 -31 10
-44 -4z"/>
<path d="M2360 2634 c0 -8 5 -12 10 -9 6 4 8 11 5 16 -9 14 -15 11 -15 -7z"/>
<path d="M1390 2636 c0 -2 9 -6 20 -9 11 -3 18 -1 14 4 -5 9 -34 13 -34 5z"/>
<path d="M1350 2602 c0 -17 22 -29 46 -24 l25 4 -27 14 c-30 16 -44 18 -44 6z"/>
<path d="M1942 2583 c2 -9 8 -18 15 -20 7 -3 9 3 6 16 -6 25 -26 28 -21 4z"/>
<path d="M3583 2570 c-3 -14 -10 -31 -16 -38 -7 -9 -7 -16 1 -24 9 -9 12 -7
12 8 0 10 9 25 21 32 18 11 24 11 38 -2 19 -18 56 -22 46 -6 -4 6 -9 8 -13 6
-10 -6 -27 16 -27 34 0 10 -10 15 -28 15 -22 1 -29 -5 -34 -25z"/>
<path d="M4360 2585 c0 -8 2 -15 4 -15 2 0 11 -3 19 -6 8 -3 17 2 20 10 4 10
1 13 -9 9 -7 -3 -14 0 -14 6 0 6 -4 11 -10 11 -5 0 -10 -7 -10 -15z"/>
<path d="M1461 2574 c0 -11 3 -14 6 -6 3 7 2 16 -1 19 -3 4 -6 -2 -5 -13z"/>
<path d="M2870 2569 c0 -5 5 -7 10 -4 6 3 10 8 10 11 0 2 -4 4 -10 4 -5 0 -10
-5 -10 -11z"/>
<path d="M3100 2570 c0 -5 5 -10 11 -10 5 0 7 5 4 10 -3 6 -8 10 -11 10 -2 0
-4 -4 -4 -10z"/>
<path d="M4116 2564 c-5 -14 -4 -15 9 -4 17 14 19 20 6 20 -5 0 -12 -7 -15
-16z"/>
<path d="M1400 2561 c0 -6 5 -13 10 -16 6 -3 10 1 10 9 0 9 -4 16 -10 16 -5 0
-10 -4 -10 -9z"/>
<path d="M1810 2550 c-6 -11 -16 -18 -22 -14 -7 4 -6 9 3 15 10 6 10 9 2 9
-19 0 -27 -21 -12 -31 21 -13 29 -11 36 9 4 9 11 20 17 24 8 5 7 8 -1 8 -7 0
-17 -9 -23 -20z"/>
<path d="M3141 2554 c0 -11 3 -14 6 -6 3 7 2 16 -1 19 -3 4 -6 -2 -5 -13z"/>
<path d="M1319 2549 c-12 -7 -11 -9 2 -9 9 0 16 -7 16 -14 0 -17 44 -86 56
-86 4 0 7 5 7 11 0 5 5 7 10 4 6 -3 10 -1 10 5 0 7 -6 10 -14 7 -17 -7 -36 12
-36 36 0 11 -4 15 -12 11 -7 -5 -9 -2 -6 7 8 20 -15 39 -33 28z"/>
<path d="M1376 2553 c-11 -11 -6 -23 9 -23 8 0 15 4 15 9 0 13 -16 22 -24 14z"/>
<path d="M2000 2543 c0 -11 -3 -14 -8 -7 -15 24 -61 8 -62 -20 0 -6 5 -5 12 2
7 7 18 12 26 12 10 0 10 -3 -2 -16 -9 -8 -16 -19 -16 -23 0 -14 -36 -7 -54 12
-21 20 -27 22 -25 5 3 -29 -2 -38 -25 -38 -19 0 -23 -4 -19 -20 4 -14 11 -19
23 -15 14 4 16 1 12 -20 -2 -14 -9 -25 -14 -25 -5 0 -6 -4 -3 -10 3 -5 1 -11
-4 -11 -6 -1 -17 -2 -23 -3 -7 -1 -19 2 -26 8 -10 7 -16 5 -23 -5 -5 -8 -9
-10 -9 -6 0 4 -6 2 -14 -5 -9 -8 -11 -17 -5 -22 5 -6 9 -18 9 -29 0 -14 -5
-17 -20 -12 -11 3 -20 4 -20 1 0 -8 67 -46 83 -46 9 0 43 34 76 75 l61 75 -25
16 c-24 16 -25 18 -9 35 10 11 25 19 35 19 23 0 89 57 89 76 0 8 -4 14 -10 14
-5 0 -10 -8 -10 -17z m-223 -226 l2 -32 -13 25 c-12 24 -12 40 2 40 4 0 8 -15
9 -33z"/>
<path d="M4060 2543 c0 -13 5 -23 10 -23 13 0 13 11 0 30 -8 12 -10 11 -10 -7z"/>
<path d="M1905 2539 c-10 -15 3 -25 16 -12 7 7 7 13 1 17 -6 3 -14 1 -17 -5z"/>
<path d="M4190 2541 c0 -6 4 -13 10 -16 6 -3 7 1 4 9 -7 18 -14 21 -14 7z"/>
<path d="M1834 2511 c-5 -5 -18 -11 -29 -14 l-20 -5 20 -1 c22 -1 52 15 44 23
-3 3 -10 2 -15 -3z"/>
<path d="M3010 2515 c0 -12 40 -44 45 -36 2 5 -6 16 -20 25 -14 9 -25 14 -25
11z"/>
<path d="M3300 2496 c0 -9 5 -16 10 -16 6 0 10 4 10 9 0 6 -4 13 -10 16 -5 3
-10 -1 -10 -9z"/>
<path d="M2041 2484 c-21 -24 -5 -28 20 -5 16 14 18 21 8 21 -8 -1 -20 -8 -28
-16z"/>
<path d="M4113 2485 c-8 -9 -9 -16 -3 -20 6 -3 13 1 16 10 9 21 2 26 -13 10z"/>
<path d="M2340 2464 c0 -8 5 -12 10 -9 6 3 10 10 10 16 0 5 -4 9 -10 9 -5 0
-10 -7 -10 -16z"/>
<path d="M4134 2456 c-6 -24 -24 -37 -24 -17 0 5 -6 11 -14 14 -10 4 -12 0 -8
-16 7 -30 21 -47 40 -47 8 0 25 -12 38 -26 13 -14 29 -22 34 -19 18 11 11 23
-25 45 -24 15 -33 26 -27 34 9 11 8 43 -2 53 -3 3 -8 -6 -12 -21z"/>
<path d="M3244 2455 c13 -10 15 -15 6 -15 -7 0 -11 -2 -8 -5 3 -3 15 -2 27 3
20 7 19 8 -11 19 -30 11 -31 11 -14 -2z"/>
<path d="M3668 2448 c-80 -19 -88 -23 -88 -45 0 -12 5 -23 10 -23 6 0 10 4 10
9 0 13 32 23 39 13 3 -5 13 -12 21 -16 8 -4 26 -13 40 -21 l25 -15 -30 0 c-16
1 -46 -1 -65 -3 -20 -3 -38 0 -42 7 -4 6 -7 -54 -7 -134 0 -109 3 -138 11
-117 l10 27 17 -22 c10 -12 23 -18 29 -14 17 10 15 46 -3 46 -8 0 -15 7 -15
15 0 18 17 20 22 3 3 -8 9 -8 24 0 17 11 18 11 1 12 -10 0 -16 4 -12 10 4 6
15 6 30 0 14 -5 25 -6 25 -1 0 5 -12 12 -26 15 -21 6 -24 11 -18 29 4 12 15
31 25 42 57 61 59 66 59 137 0 37 -1 68 -2 67 -2 0 -42 -10 -90 -21z m62 -8
c0 -5 -4 -10 -10 -10 -5 0 -10 5 -10 10 0 6 5 10 10 10 6 0 10 -4 10 -10z
m-60 -120 c0 -5 -9 -10 -20 -10 -11 0 -20 5 -20 10 0 6 9 10 20 10 11 0 20 -4
20 -10z m-35 -39 c-5 -13 -4 -14 6 -3 26 25 32 11 7 -15 -14 -16 -23 -34 -21
-40 3 -7 -2 -13 -11 -13 -20 0 -20 9 1 32 10 12 12 18 4 18 -7 0 -10 4 -6 9 3
6 -2 14 -11 19 -14 8 -12 10 10 10 21 0 26 -4 21 -17z"/>
<path d="M3940 2440 c0 -4 9 -10 20 -13 11 -3 20 -2 20 3 0 4 -9 10 -20 13
-11 3 -20 2 -20 -3z"/>
<path d="M4175 2420 c9 -16 17 -30 19 -30 1 0 1 14 -2 30 -2 17 -10 30 -18 30
-12 0 -12 -5 1 -30z"/>
<path d="M4217 2437 c-3 -8 -1 -20 4 -28 6 -10 9 -7 9 14 0 29 -5 35 -13 14z"/>
<path d="M1775 2410 c-3 -5 1 -10 9 -10 8 0 18 5 21 10 3 6 -1 10 -9 10 -8 0
-18 -4 -21 -10z"/>
<path d="M1590 2400 c0 -6 7 -10 15 -10 8 0 15 2 15 4 0 2 -7 6 -15 10 -8 3
-15 1 -15 -4z"/>
<path d="M2344 2385 c-9 -19 -9 -28 1 -42 11 -15 13 -11 13 25 0 23 0 42 -1
42 -1 0 -7 -11 -13 -25z"/>
<path d="M3847 2403 c-10 -9 -9 -23 2 -23 5 0 11 7 15 15 5 15 -5 20 -17 8z"/>
<path d="M3895 2400 c-3 -5 -1 -10 4 -10 6 0 11 5 11 10 0 6 -2 10 -4 10 -3 0
-8 -4 -11 -10z"/>
<path d="M4410 2400 c0 -5 5 -10 11 -10 5 0 7 5 4 10 -3 6 -8 10 -11 10 -2 0
-4 -4 -4 -10z"/>
<path d="M1425 2390 c-3 -5 -2 -10 4 -10 5 0 13 5 16 10 3 6 2 10 -4 10 -5 0
-13 -4 -16 -10z"/>
<path d="M1467 2380 c4 -14 0 -20 -11 -20 -14 0 -14 -3 -4 -20 7 -11 22 -20
33 -19 17 0 16 2 -5 10 -24 10 -24 11 -6 24 11 8 16 21 13 30 -9 22 -26 18
-20 -5z"/>
<path d="M1640 2390 c0 -5 5 -10 11 -10 5 0 7 5 4 10 -3 6 -8 10 -11 10 -2 0
-4 -4 -4 -10z"/>
<path d="M3451 2384 c0 -11 3 -14 6 -6 3 7 2 16 -1 19 -3 4 -6 -2 -5 -13z"/>
<path d="M3362 2378 c-24 -5 -42 -10 -40 -12 1 -1 11 -8 21 -15 15 -12 17 -12
11 3 -5 13 0 16 25 16 17 0 31 5 31 10 0 6 -1 10 -2 9 -2 -1 -23 -6 -46 -11z"/>
<path d="M3620 2380 c0 -5 10 -10 23 -10 18 0 19 2 7 10 -19 13 -30 13 -30 0z"/>
<path d="M1923 2352 c-13 -15 -36 -42 -52 -60 -16 -18 -27 -40 -24 -48 3 -8
-1 -14 -7 -14 -19 0 -101 -90 -93 -103 3 -5 1 -7 -5 -3 -6 3 -26 -12 -45 -34
-33 -38 -47 -48 -47 -32 0 4 23 34 51 67 89 106 85 99 58 92 -15 -4 -30 0 -41
10 -10 9 -18 11 -18 5 0 -6 -25 -14 -55 -17 -30 -4 -55 -11 -55 -16 0 -8 29
-13 58 -10 18 3 15 -9 -10 -30 -29 -26 -48 -24 -40 3 3 13 1 19 -5 15 -14 -9
-10 60 5 75 9 9 12 8 12 -5 0 -11 8 -17 21 -17 19 0 19 1 5 16 -9 8 -29 19
-46 24 -30 9 -30 8 -30 -33 l0 -42 -21 25 -21 25 17 -30 c9 -16 25 -37 36 -46
10 -9 16 -19 13 -21 -2 -3 12 -29 33 -59 20 -30 60 -90 89 -134 99 -150 110
-162 110 -125 0 11 -7 20 -16 20 -8 0 33 31 91 70 59 38 109 76 113 85 7 19
-8 19 -37 0 -21 -13 -24 -12 -47 15 -23 28 -50 40 -50 22 0 -5 9 -26 19 -48
19 -37 12 -59 -11 -36 -7 7 -21 4 -44 -9 -36 -20 -45 -12 -18 15 8 9 11 16 5
16 -5 0 -13 -5 -16 -11 -5 -6 -12 -4 -20 7 -7 10 -19 15 -28 11 -11 -4 -16 2
-19 23 -5 36 2 49 30 53 23 3 43 17 25 17 -12 0 -12 25 0 36 4 4 7 16 7 28 0
23 47 76 67 76 7 0 13 6 13 13 0 8 4 7 10 -3 8 -12 10 -9 10 12 0 14 -6 29
-12 31 -8 3 -6 6 5 6 11 1 20 12 24 32 3 17 12 33 19 36 14 5 28 33 16 33 -4
0 -17 -13 -29 -28z m-163 -394 c0 -4 -7 -8 -15 -8 -8 0 -15 4 -15 8 0 5 7 9
15 9 8 0 15 -4 15 -9z m7 -24 c-3 -3 -12 -4 -19 -1 -8 3 -5 6 6 6 11 1 17 -2
13 -5z"/>
<path d="M3985 2360 c-3 -5 -1 -10 4 -10 6 0 11 5 11 10 0 6 -2 10 -4 10 -3 0
-8 -4 -11 -10z"/>
<path d="M4060 2360 c0 -5 10 -10 23 -10 18 0 19 2 7 10 -19 13 -30 13 -30 0z"/>
<path d="M4314 2335 c21 -16 32 -13 21 4 -3 6 -14 11 -23 11 -15 -1 -15 -2 2
-15z"/>
<path d="M1572 2316 c-8 -19 -8 -25 2 -29 7 -3 13 0 13 6 0 7 4 20 8 30 11 26
-10 20 -23 -7z"/>
<path d="M2278 2323 c7 -3 16 -2 19 1 4 3 -2 6 -13 5 -11 0 -14 -3 -6 -6z"/>
<path d="M3946 2314 c-6 -15 -1 -16 28 -5 19 7 19 8 -1 13 -14 4 -24 0 -27 -8z"/>
<path d="M4151 2314 c0 -11 3 -14 6 -6 3 7 2 16 -1 19 -3 4 -6 -2 -5 -13z"/>
<path d="M1515 2311 c-3 -5 -1 -12 5 -16 12 -7 30 2 30 16 0 12 -27 12 -35 0z"/>
<path d="M2230 2301 c0 -18 25 -29 37 -16 6 7 9 16 6 19 -10 9 -43 7 -43 -3z"/>
<path d="M4170 2306 c0 -2 13 -6 29 -8 17 -2 28 -1 25 4 -5 8 -54 12 -54 4z"/>
<path d="M3985 2290 c3 -5 8 -10 11 -10 2 0 4 5 4 10 0 6 -5 10 -11 10 -5 0
-7 -4 -4 -10z"/>
<path d="M4346 2285 c-9 -26 -7 -32 5 -12 6 10 9 21 6 23 -2 3 -7 -2 -11 -11z"/>
<path d="M3942 2281 c2 -7 7 -12 11 -12 12 1 9 15 -3 20 -7 2 -11 -2 -8 -8z"/>
<path d="M2206 2272 c-3 -4 9 -13 26 -20 30 -11 30 -11 13 8 -19 21 -31 25
-39 12z"/>
<path d="M2380 2239 c0 -6 9 -13 20 -16 11 -3 20 -12 20 -19 0 -19 -20 -17
-37 4 -12 16 -13 15 -11 -8 2 -19 9 -25 28 -25 22 0 25 5 28 39 3 35 2 38 -12
27 -11 -9 -16 -10 -16 -2 0 6 -4 11 -10 11 -5 0 -10 -5 -10 -11z"/>
<path d="M4118 2233 c6 -2 18 -2 25 0 6 3 1 5 -13 5 -14 0 -19 -2 -12 -5z"/>
<path d="M4390 2231 c0 -6 4 -13 10 -16 6 -3 7 1 4 9 -7 18 -14 21 -14 7z"/>
<path d="M2190 2211 c0 -5 7 -11 14 -14 10 -4 13 -1 9 9 -6 15 -23 19 -23 5z"/>
<path d="M2152 2183 c-12 -2 -20 -9 -17 -14 9 -14 32 -11 39 6 3 8 4 14 3 14
-1 -1 -12 -4 -25 -6z"/>
<path d="M2235 2180 c-3 -5 -1 -10 4 -10 6 0 11 5 11 10 0 6 -2 10 -4 10 -3 0
-8 -4 -11 -10z"/>
<path d="M1818 2168 c-3 -7 2 -19 10 -27 12 -12 15 -12 23 0 5 8 9 20 9 27 0
16 -37 16 -42 0z"/>
<path d="M3915 2160 c-3 -5 -2 -10 4 -10 5 0 12 -8 14 -17 4 -14 5 -13 6 4 1
24 -14 39 -24 23z"/>
<path d="M3706 2143 c-6 -14 -5 -15 5 -6 7 7 10 15 7 18 -3 3 -9 -2 -12 -12z"/>
<path d="M1860 2125 c0 -8 5 -15 10 -15 6 0 10 7 10 15 0 8 -4 15 -10 15 -5 0
-10 -7 -10 -15z"/>
<path d="M2321 2126 c-9 -10 -8 -15 3 -19 9 -4 18 -2 21 3 4 6 1 10 -5 10 -6
0 -8 5 -5 10 9 15 -1 12 -14 -4z"/>
<path d="M2087 2112 c-9 -10 -14 -21 -11 -25 9 -8 36 21 32 34 -2 6 -11 2 -21
-9z"/>
<path d="M2268 2123 c6 -2 18 -2 25 0 6 3 1 5 -13 5 -14 0 -19 -2 -12 -5z"/>
<path d="M1950 2099 c0 -6 9 -13 20 -16 11 -3 20 -11 20 -18 0 -11 31 -45 42
-45 7 0 48 36 48 43 0 3 -14 4 -32 2 -22 -3 -36 2 -48 15 -9 11 -20 17 -24 13
-3 -3 -6 -1 -6 5 0 7 -4 12 -10 12 -5 0 -10 -5 -10 -11z"/>
<path d="M1790 2010 c0 -5 5 -10 11 -10 5 0 7 5 4 10 -3 6 -8 10 -11 10 -2 0
-4 -4 -4 -10z"/>
<path d="M1830 2010 c-8 -5 -10 -10 -5 -10 6 0 17 5 25 10 8 5 11 10 5 10 -5
0 -17 -5 -25 -10z"/>
<path d="M2320 1981 c0 -23 11 -33 26 -23 6 4 3 14 -8 25 -17 16 -18 16 -18
-2z"/>
<path d="M2050 1941 c0 -9 30 -24 36 -18 2 1 -6 8 -16 15 -11 7 -20 8 -20 3z"/>
<path d="M2124 1911 c20 -22 36 -27 36 -13 0 5 -12 14 -27 21 -28 13 -28 13
-9 -8z"/>
<path d="M2310 1885 c7 -9 15 -13 17 -11 7 7 -7 26 -19 26 -6 0 -6 -6 2 -15z"/>
<path d="M2202 1864 c19 -20 93 -30 103 -15 3 7 -2 11 -14 11 -12 0 -21 5 -21
12 0 9 -3 9 -12 0 -14 -14 -42 -16 -33 -2 3 6 -4 10 -17 10 -21 0 -21 -1 -6
-16z"/>
<path d="M3588 1828 c-8 -19 -1 -28 21 -28 10 0 12 3 5 8 -6 4 -13 14 -16 21
-4 13 -5 12 -10 -1z"/>
<path d="M2191 1794 c0 -11 3 -14 6 -6 3 7 2 16 -1 19 -3 4 -6 -2 -5 -13z"/>
<path d="M4135 1800 c-3 -5 -1 -10 4 -10 6 0 11 5 11 10 0 6 -2 10 -4 10 -3 0
-8 -4 -11 -10z"/>
<path d="M1877 1700 c37 -55 70 -100 73 -100 14 0 130 81 130 91 0 6 -6 7 -12
2 -17 -10 -35 -14 -79 -18 -33 -3 -43 2 -103 61 -36 35 -68 64 -71 64 -3 0 25
-45 62 -100z"/>
<path d="M2113 1775 c-15 -17 -16 -25 -3 -25 5 0 14 9 20 20 12 23 1 26 -17 5z"/>
<path d="M4090 1780 c0 -5 5 -10 10 -10 6 0 10 5 10 10 0 6 -4 10 -10 10 -5 0
-10 -4 -10 -10z"/>
<path d="M2160 1770 c0 -5 5 -10 10 -10 6 0 10 5 10 10 0 6 -4 10 -10 10 -5 0
-10 -4 -10 -10z"/>
<path d="M4140 1770 c0 -5 -18 -13 -40 -16 -45 -7 -51 -18 -17 -29 l22 -8 -22
-4 c-16 -3 -23 -11 -23 -29 0 -28 18 -31 60 -9 26 14 30 21 30 60 0 25 -2 45
-5 45 -3 0 -5 -4 -5 -10z"/>
<path d="M3740 1730 c-13 -8 -12 -10 3 -10 9 0 17 5 17 10 0 12 -1 12 -20 0z"/>
<path d="M3894 1697 c-30 -26 -26 -47 10 -47 33 0 51 23 31 40 -8 7 -12 16 -9
21 9 16 -4 10 -32 -14z m26 -17 c0 -5 -4 -10 -10 -10 -5 0 -10 5 -10 10 0 6 5
10 10 10 6 0 10 -4 10 -10z"/>
<path d="M3655 1693 c-11 -3 -30 -16 -42 -30 -67 -72 30 -137 105 -70 28 26
28 60 0 87 -22 20 -28 22 -63 13z m29 -29 c12 -5 13 -11 6 -24 -6 -10 -7 -25
-4 -33 8 -21 -43 -32 -61 -13 -21 20 -19 35 7 57 23 21 29 22 52 13z"/>
<path d="M3655 1629 c-4 -6 -5 -12 -2 -15 2 -3 7 2 10 11 7 17 1 20 -8 4z"/>
<path d="M3980 1686 c0 -2 7 -6 15 -10 8 -3 15 -1 15 4 0 6 -7 10 -15 10 -8 0
-15 -2 -15 -4z"/>
<path d="M2107 1673 c-11 -10 31 -34 63 -35 16 -1 27 -4 25 -8 -3 -4 5 -10 18
-14 33 -9 37 -7 31 9 -6 14 -41 31 -57 27 -4 -1 -18 4 -30 13 -23 16 -40 19
-50 8z"/>
<path d="M3440 1629 c0 -5 5 -7 10 -4 6 3 10 8 10 11 0 2 -4 4 -10 4 -5 0 -10
-5 -10 -11z"/>
<path d="M1960 1580 c0 -5 5 -10 11 -10 5 0 7 5 4 10 -3 6 -8 10 -11 10 -2 0
-4 -4 -4 -10z"/>
<path d="M3895 1569 c-16 -6 -17 -8 -3 -8 9 -1 20 -6 24 -12 5 -8 -2 -10 -22
-6 -28 5 -28 5 -9 -11 23 -19 22 -52 -3 -52 -13 0 -13 -2 3 -13 10 -8 15 -19
11 -26 -6 -9 -13 -8 -27 5 -10 9 -19 12 -19 7 0 -6 7 -16 15 -23 20 -16 48 5
40 30 -4 14 -1 16 20 12 20 -3 25 0 25 17 0 12 -7 24 -16 28 -8 3 -13 11 -11
17 9 23 -7 44 -28 35z m45 -80 c0 -5 -7 -9 -15 -9 -15 0 -20 12 -9 23 8 8 24
-1 24 -14z"/>
<path d="M1979 1542 c5 -10 18 -25 28 -33 12 -10 11 -5 -6 19 -24 35 -38 43
-22 14z"/>
<path d="M3690 1550 c0 -5 5 -10 11 -10 5 0 7 5 4 10 -3 6 -8 10 -11 10 -2 0
-4 -4 -4 -10z"/>
<path d="M4085 1523 c-43 -8 -114 -47 -134 -74 -34 -45 -36 -79 -8 -117 l25
-33 28 48 c15 26 28 59 28 73 1 33 13 50 36 50 11 0 27 11 36 25 19 29 17 33
-11 28z"/>
<path d="M2210 1510 c-12 -8 -9 -10 13 -10 16 0 26 4 22 10 -8 12 -16 12 -35
0z"/>
<path d="M3730 1484 c0 -8 5 -12 10 -9 6 3 10 10 10 16 0 5 -4 9 -10 9 -5 0
-10 -7 -10 -16z"/>
<path d="M2046 1448 c45 -53 62 -57 76 -17 7 19 7 21 -3 12 -10 -10 -17 -9
-31 4 -11 9 -28 18 -40 20 -21 3 -21 3 -2 -19z"/>
<path d="M2190 1462 c0 -10 33 -42 42 -42 3 0 8 9 11 21 4 15 2 19 -8 15 -8
-3 -17 -1 -20 4 -8 12 -25 13 -25 2z"/>
<path d="M2275 1450 c-3 -5 -1 -10 4 -10 6 0 11 5 11 10 0 6 -2 10 -4 10 -3 0
-8 -4 -11 -10z"/>
<path d="M2137 1423 c-11 -10 -8 -33 4 -33 5 0 8 4 5 9 -3 5 1 12 10 15 23 9
24 8 17 -11 -4 -11 -3 -14 5 -9 21 13 13 36 -11 36 -13 0 -27 -3 -30 -7z"/>
<path d="M2234 1371 c8 -12 46 -21 46 -11 0 8 -24 20 -41 20 -6 0 -8 -4 -5 -9z"/>
<path d="M3806 1342 c-3 -5 4 -8 16 -8 12 1 23 -5 26 -13 3 -10 -2 -13 -22 -9
-18 4 -24 2 -18 -4 16 -16 47 -4 50 20 3 18 -1 22 -22 22 -14 0 -27 -4 -30 -8z"/>
<path d="M3647 1333 c-4 -3 -7 -11 -7 -17 0 -6 5 -5 12 2 6 6 9 14 7 17 -3 3
-9 2 -12 -2z"/>
<path d="M3905 1310 c-8 -13 5 -13 25 0 13 8 13 10 -2 10 -9 0 -20 -4 -23 -10z"/>
<path d="M2166 1277 c3 -10 9 -15 12 -12 3 3 0 11 -7 18 -10 9 -11 8 -5 -6z"/>
<path d="M3662 1243 c5 -25 38 -30 37 -6 0 10 -3 13 -6 6 -2 -7 -9 -13 -15
-13 -6 0 -8 7 -4 15 3 8 1 15 -5 15 -6 0 -9 -8 -7 -17z"/>
</g>
</svg>
