<?xml version="1.0" standalone="no"?>
<!DOCTYPE svg PUBLIC "-//W3C//DTD SVG 20010904//EN"
 "http://www.w3.org/TR/2001/REC-SVG-20010904/DTD/svg10.dtd">
<svg version="1.0" xmlns="http://www.w3.org/2000/svg"
 width="200" height="200" viewBox="0 0 512.000000 512.000000"
 preserveAspectRatio="xMidYMid meet">

<g transform="translate(0.000000,512.000000) scale(0.100000,-0.100000)"
fill="#FFFFFF" stroke="none">
<path d="M2880 5114 c-281 -50 -493 -184 -637 -405 -27 -41 -57 -96 -66 -121
l-18 -46 -77 39 c-161 83 -361 129 -557 129 -588 0 -1094 -412 -1216 -990 -33
-155 -31 -365 3 -515 75 -325 258 -592 528 -772 55 -36 72 -54 85 -87 113
-304 114 -305 95 -311 -33 -10 -70 -46 -90 -86 -18 -34 -20 -59 -20 -220 0
-165 2 -187 21 -226 22 -46 59 -78 101 -88 26 -7 26 -7 30 -125 3 -109 5 -120
27 -144 14 -14 39 -31 57 -38 30 -11 32 -14 39 -77 4 -36 15 -82 26 -102 25
-51 92 -105 144 -118 53 -13 284 -14 339 -1 100 23 166 106 174 221 3 51 8 69
19 69 28 0 73 31 90 63 11 22 18 65 21 139 4 101 6 107 27 112 32 8 82 52 103
90 14 26 17 60 17 221 0 181 -1 192 -24 231 -13 23 -41 52 -62 65 -21 13 -37
29 -35 34 1 6 29 82 61 170 l59 161 75 49 c42 27 124 97 184 155 98 97 107
110 107 143 0 46 -29 77 -70 77 -24 0 -47 -18 -127 -99 -141 -142 -284 -231
-460 -287 l-73 -22 0 307 0 308 110 5 c92 5 119 10 165 32 103 51 165 150 165
266 0 78 -24 141 -76 199 -87 97 -230 125 -347 68 -116 -57 -167 -154 -167
-318 l0 -100 -102 3 -103 3 -5 120 c-5 107 -8 125 -32 165 -59 101 -149 154
-258 154 -82 0 -127 -15 -189 -64 -167 -132 -137 -397 55 -491 58 -29 77 -33
170 -37 l104 -5 0 -303 c0 -258 -2 -304 -14 -304 -8 0 -48 12 -88 26 -281 101
-493 291 -624 559 -150 309 -148 649 6 960 132 266 361 463 645 554 128 41
235 55 384 48 160 -7 289 -39 428 -107 l103 -50 -6 -113 c-11 -189 30 -357
126 -519 74 -123 224 -265 348 -327 34 -17 42 -26 42 -49 -1 -49 -28 -183 -56
-274 l-27 -89 20 -27 c27 -37 80 -42 110 -10 26 29 69 164 87 274 7 47 16 87
19 90 3 3 31 1 63 -5 82 -15 247 -13 329 4 38 8 71 15 72 15 2 0 3 -91 3 -202
1 -239 6 -271 54 -315 l36 -33 446 0 446 0 39 39 39 39 0 164 c0 186 -4 198
-72 198 -62 0 -72 -23 -77 -166 l-3 -124 -379 0 -379 0 0 229 0 229 53 32 c87
54 181 135 236 204 l53 66 208 0 208 0 4 -109 c4 -128 16 -151 78 -151 64 0
70 16 70 178 l0 142 -32 36 c-44 47 -79 53 -285 54 l-171 0 18 49 c56 146 65
385 21 539 -88 302 -334 543 -636 623 -77 20 -275 34 -335 23z m257 -160 c155
-32 281 -102 389 -217 132 -140 193 -283 202 -474 6 -141 -13 -234 -73 -358
-76 -157 -183 -264 -340 -340 -123 -60 -217 -79 -358 -73 -198 9 -339 71 -483
213 -82 82 -133 157 -172 255 -38 99 -46 143 -46 270 -1 142 18 223 80 341
153 291 483 449 801 383z m-1929 -1510 c48 -32 62 -71 62 -178 l0 -98 -95 4
c-101 4 -127 15 -168 69 -90 122 73 287 201 203z m804 -5 c38 -27 58 -69 58
-121 0 -98 -69 -147 -207 -148 l-83 0 0 90 c0 114 19 157 82 189 51 26 104 22
150 -10z m-382 -738 l0 -318 -53 -6 c-29 -4 -76 -4 -105 0 l-52 6 0 318 0 319
105 0 105 0 0 -319z m276 -527 l-44 -119 -41 -3 -41 -3 0 100 0 100 43 11 c23
6 60 17 82 24 22 7 41 12 42 11 2 -1 -17 -55 -41 -121z m-688 90 l52 -15 0
-100 0 -99 -38 0 -39 0 -41 114 c-23 63 -42 117 -42 121 0 8 22 3 108 -21z
m412 -126 l0 -88 -105 0 -105 0 0 83 c0 46 2 86 5 88 2 3 50 5 105 5 l100 0 0
-88z m358 -410 l2 -166 -139 -4 c-159 -4 -181 -13 -181 -76 0 -57 22 -72 102
-72 l68 0 0 -80 0 -80 -315 0 -315 0 0 80 0 80 107 0 c124 0 143 9 143 70 0
68 -17 74 -219 80 l-176 5 -3 155 c-1 85 0 160 2 167 4 11 95 13 463 11 l458
-3 3 -167z m-268 -672 c0 -94 -22 -106 -198 -106 -116 0 -132 2 -156 21 -22
18 -26 28 -26 75 l0 54 190 0 190 0 0 -44z"/>
<path d="M3373 4524 c-7 -3 -112 -118 -234 -255 -121 -137 -222 -249 -224
-249 -2 0 -69 78 -149 174 -81 97 -156 176 -168 179 -51 14 -108 -47 -89 -95
9 -23 268 -337 339 -410 27 -29 44 -38 69 -38 30 0 50 20 265 263 310 349 298
334 298 363 0 48 -61 86 -107 68z"/>
<path d="M2456 2421 c-53 -35 -55 -46 -56 -308 0 -164 4 -250 12 -268 19 -41
64 -62 148 -67 119 -8 199 -58 247 -155 32 -67 36 -164 9 -226 -43 -98 -146
-167 -249 -167 -69 0 -116 -18 -145 -55 -21 -27 -22 -37 -22 -257 0 -329 -11
-318 309 -318 116 0 211 -2 211 -5 0 -2 -7 -30 -15 -62 -38 -144 0 -286 106
-398 208 -220 562 -161 693 115 44 95 49 239 11 333 -7 16 7 17 211 17 321 0
314 -7 314 320 0 201 1 210 18 201 10 -5 48 -15 85 -21 226 -40 447 121 488
354 53 305 -259 573 -551 472 l-40 -14 0 209 c0 235 -6 265 -62 299 -31 18
-50 20 -261 20 -296 0 -307 -5 -326 -154 -6 -51 -18 -91 -35 -120 -110 -188
-388 -179 -487 16 -11 22 -24 71 -28 109 -8 74 -29 114 -72 136 -17 9 -91 13
-254 13 -211 0 -232 -2 -259 -19z m442 -193 c25 -134 113 -248 239 -310 64
-31 74 -33 178 -33 108 0 113 1 186 37 127 63 221 189 236 317 l6 51 173 0
174 0 0 -246 0 -246 34 -34 c43 -43 68 -43 154 -2 90 44 171 46 254 5 97 -48
151 -136 151 -247 1 -79 -24 -141 -78 -195 -87 -86 -209 -104 -327 -47 -37 18
-76 32 -88 32 -31 0 -76 -29 -89 -57 -7 -15 -11 -113 -11 -263 l0 -240 -241 0
c-261 0 -284 -4 -308 -57 -17 -38 -13 -67 19 -135 24 -51 30 -76 29 -128 0
-36 -6 -79 -12 -97 -51 -138 -198 -210 -342 -169 -45 14 -69 29 -110 69 -94
95 -110 209 -45 337 30 58 31 67 21 102 -8 26 -23 46 -44 58 -29 18 -52 20
-269 20 l-238 0 0 164 0 163 66 6 c130 10 262 104 324 231 82 166 51 356 -79
487 -68 67 -147 108 -241 122 l-70 11 0 178 0 178 168 0 168 0 12 -62z"/>
</g>
</svg>
